<?xml version="1.0" encoding="utf-8"?>
<!-- Generator: Adobe Illustrator 27.5.0, SVG Export Plug-In . SVG Version: 6.00 Build 0)  -->
<svg version="1.1" id="Layer_1" xmlns="http://www.w3.org/2000/svg" xmlns:xlink="http://www.w3.org/1999/xlink" x="0px" y="0px"
	 viewBox="0 0 4000 4000" style="enable-background:new 0 0 4000 4000;" xml:space="preserve">
<rect x="-0.5" y="-0.5" style="fill:#FFFFFF;stroke:#000000;stroke-miterlimit:10;" width="4000" height="4000"/>
<g>
	<g>
		<defs>
			<path id="SVGID_1_" d="M1693.211,955.38v214.697c5.699-0.164,11.419-0.246,17.158-0.246c324.523,0,587.601,263.078,587.601,587.6
				c0,324.523-263.078,587.601-587.601,587.601c-5.74,0-11.459-0.083-17.158-0.247v431.988L2100.466,3220h780.51l-565.175-615.093
				c263.398-179.959,436.281-482.659,436.281-825.739c0-551.925-447.425-999.349-999.349-999.349
				c-210.082,0-405.025,64.824-565.914,175.562H1693.211z"/>
		</defs>
		<clipPath id="SVGID_00000181087961699301832460000017258741661655067300_">
			<use xlink:href="#SVGID_1_"  style="overflow:visible;"/>
		</clipPath>
		
			<linearGradient id="SVGID_00000025436350059813600740000008998580729028378788_" gradientUnits="userSpaceOnUse" x1="1662.5374" y1="2236.9478" x2="3275.2212" y2="1207.5753">
			<stop  offset="0" style="stop-color:#00478F"/>
			<stop  offset="1" style="stop-color:#47EADF"/>
		</linearGradient>
		
			<rect x="1186.819" y="779.818" style="clip-path:url(#SVGID_00000181087961699301832460000017258741661655067300_);fill:url(#SVGID_00000025436350059813600740000008998580729028378788_);" width="1694.158" height="2440.182"/>
	</g>
	<defs>
		<filter id="Adobe_OpacityMaskFilter" filterUnits="userSpaceOnUse" x="1186.819" y="781.566" width="913.647" height="2438.434">
			<feColorMatrix  type="matrix" values="1 0 0 0 0  0 1 0 0 0  0 0 1 0 0  0 0 0 1 0"/>
		</filter>
	</defs>
	
		<mask maskUnits="userSpaceOnUse" x="1186.819" y="781.566" width="913.647" height="2438.434" id="SVGID_00000027589285882782030790000012575165872569549740_">
		<g style="filter:url(#Adobe_OpacityMaskFilter);">
			
				<linearGradient id="SVGID_00000065752669779373418950000010894261769075812785_" gradientUnits="userSpaceOnUse" x1="502.7204" y1="1649.1694" x2="700.0146" y2="4874.5308" gradientTransform="matrix(1 0 0 1 1040.6815 -1287.1226)">
				<stop  offset="0" style="stop-color:#FFFFFF"/>
				<stop  offset="1" style="stop-color:#000000"/>
			</linearGradient>
			
				<rect x="1186.819" y="781.566" style="fill:url(#SVGID_00000065752669779373418950000010894261769075812785_);" width="913.647" height="2438.434"/>
		</g>
	</mask>
	
		<path style="mask:url(#SVGID_00000027589285882782030790000012575165872569549740_);fill-rule:evenodd;clip-rule:evenodd;fill:#102770;" d="
		M1946.108,2295.785c-72.167,31.646-151.891,49.247-235.739,49.247c-5.74,0-11.459-0.083-17.158-0.247v431.988L2100.466,3220
		L1946.108,2295.785z M1693.211,955.38v214.697c5.699-0.164,11.419-0.246,17.158-0.246c16.169,0,32.177,0.682,48.016,1.963
		l-65.174-390.228c-187.338,11.004-360.807,73.61-506.392,173.814H1693.211z"/>
	<g>
		<defs>
			<path id="SVGID_00000067224849070570616530000014008092503556450950_" d="M1693.211,3220v-443.227v-849.449V955.38V781.562
				c-187.338,11.004-360.807,73.614-506.392,173.818c-23.529,16.194-46.329,33.37-68.342,51.468v1051.688v92.74v400.21V3220
				H1693.211z"/>
		</defs>
		<clipPath id="SVGID_00000080905526870449661650000017983594295689469347_">
			<use xlink:href="#SVGID_00000067224849070570616530000014008092503556450950_"  style="overflow:visible;"/>
		</clipPath>
		
			<linearGradient id="SVGID_00000154386326874744951140000010608208341219037595_" gradientUnits="userSpaceOnUse" x1="1393.2687" y1="3635.719" x2="1410.4237" y2="1405.4135">
			<stop  offset="0" style="stop-color:#00478F"/>
			<stop  offset="1" style="stop-color:#28A3BC"/>
		</linearGradient>
		
			<rect x="1118.478" y="781.562" style="clip-path:url(#SVGID_00000080905526870449661650000017983594295689469347_);fill:url(#SVGID_00000154386326874744951140000010608208341219037595_);" width="574.733" height="2438.438"/>
	</g>
	<defs>
		
			<filter id="Adobe_OpacityMaskFilter_00000029019802450101414420000005658133816514274991_" filterUnits="userSpaceOnUse" x="1118.478" y="840.096" width="291.656" height="2379.905">
			<feColorMatrix  type="matrix" values="1 0 0 0 0  0 1 0 0 0  0 0 1 0 0  0 0 0 1 0"/>
		</filter>
	</defs>
	
		<mask maskUnits="userSpaceOnUse" x="1118.478" y="840.096" width="291.656" height="2379.905" id="SVGID_00000017498322489026946440000016998480835165977018_">
		<g style="filter:url(#Adobe_OpacityMaskFilter_00000029019802450101414420000005658133816514274991_);">
			
				<linearGradient id="SVGID_00000150072567012603133780000006302710437130385297_" gradientUnits="userSpaceOnUse" x1="190.8457" y1="1572.6104" x2="268.0498" y2="4167.7769" gradientTransform="matrix(1 0 0 1 1021.5607 -1287.1226)">
				<stop  offset="0" style="stop-color:#FFFFFF"/>
				<stop  offset="1" style="stop-color:#000000"/>
			</linearGradient>
			
				<rect x="1118.478" y="840.095" style="fill:url(#SVGID_00000150072567012603133780000006302710437130385297_);" width="291.656" height="2379.906"/>
		</g>
	</mask>
	
		<path style="mask:url(#SVGID_00000017498322489026946440000016998480835165977018_);fill-rule:evenodd;clip-rule:evenodd;fill:#47EADF;" d="
		M1410.133,840.096c-79.667,29.073-154.597,67.988-223.314,115.285c-23.529,16.194-46.329,33.37-68.342,51.468v1051.688v92.74
		v400.21V3220h291.656v-443.227v-849.449V955.38V840.096z"/>
	<defs>
		
			<filter id="Adobe_OpacityMaskFilter_00000147907609777588424300000011692624817630978477_" filterUnits="userSpaceOnUse" x="2075.987" y="833.255" width="676.095" height="1721.3">
			<feColorMatrix  type="matrix" values="1 0 0 0 0  0 1 0 0 0  0 0 1 0 0  0 0 0 1 0"/>
		</filter>
	</defs>
	
		<mask maskUnits="userSpaceOnUse" x="2075.987" y="833.255" width="676.095" height="1721.3" id="SVGID_00000154414967555840631760000016960269870306693290_">
		<g style="filter:url(#Adobe_OpacityMaskFilter_00000147907609777588424300000011692624817630978477_);">
			
				<linearGradient id="SVGID_00000042737050480999842520000016891329163684878237_" gradientUnits="userSpaceOnUse" x1="1704.0171" y1="2804.1868" x2="992.0341" y2="3250.2485" gradientTransform="matrix(1 0 0 1 1289.4548 -1473.302)">
				<stop  offset="0" style="stop-color:#FFFFFF"/>
				<stop  offset="1" style="stop-color:#000000"/>
			</linearGradient>
			
				<rect x="2075.987" y="833.255" style="fill:url(#SVGID_00000042737050480999842520000016891329163684878237_);" width="676.095" height="1721.3"/>
		</g>
	</mask>
	
		<path style="mask:url(#SVGID_00000154414967555840631760000016960269870306693290_);fill-rule:evenodd;clip-rule:evenodd;fill:#5EF9F6;" d="
		M2075.987,833.255c316.411,227.65,522.447,599.082,522.447,1018.638c0,260.376-79.354,502.219-215.197,702.662
		c225.076-183.242,368.846-462.526,368.846-775.388C2752.083,1340.368,2469.274,967.622,2075.987,833.255"/>
</g>
</svg>
